<svg width="75" height="73" viewBox="0 0 75 73" fill="none" xmlns="http://www.w3.org/2000/svg">
<path opacity="0.3" d="M69.2482 26.394C66.1426 26.3976 63.6307 28.9259 63.6272 32.0439C63.6272 32.1393 63.6518 32.2311 63.6553 32.3264L55.9124 33.6224V33.6259C55.3432 29.2437 53.0878 25.2605 49.6274 22.534L54.0996 14.7761C54.7566 14.9773 55.4416 15.0833 56.1302 15.0939C59.7171 15.1009 62.8051 12.5585 63.5077 9.02381C64.2103 5.48915 62.3273 1.95088 59.0144 0.573661C55.7016 -0.803464 51.8828 0.365321 49.894 3.36678C47.9092 6.36475 48.3096 10.3585 50.8496 12.8975L46.4477 20.5354C41.6347 18.1589 35.9648 18.3213 31.2953 20.9697L25.2984 12.4101L25.2949 12.4066C25.8534 11.5202 26.1486 10.4927 26.1521 9.44395C26.1521 7.15931 24.782 5.09706 22.6811 4.2249C20.5803 3.34917 18.1632 3.83294 16.5577 5.45025C14.9487 7.06403 14.4674 9.49349 15.3386 11.6051C16.2064 13.7167 18.258 15.0939 20.531 15.0939C21.1528 15.0869 21.7711 14.9739 22.3578 14.762L28.2106 23.1168V23.1132C24.9926 25.9452 22.9726 29.9072 22.5686 34.187L14.5587 35.5289C13.4485 31.9341 9.85811 29.7271 6.16939 30.3699C2.48058 31.0161 -0.157783 34.3142 0.00733956 38.0749C0.172453 41.832 3.08836 44.8829 6.81926 45.2008C10.5502 45.515 13.9334 42.9973 14.7238 39.3214L22.6249 37.9972C23.3345 43.4493 26.6439 48.2131 31.492 50.7623L25.3616 60.4024C23.0325 59.9433 20.668 61.0062 19.4561 63.0543C18.2405 65.1024 18.4373 67.6943 19.9444 69.534C21.4515 71.3774 23.9458 72.0659 26.1802 71.2608C28.411 70.4557 29.9006 68.3264 29.9006 65.9429C29.8935 64.6223 29.4228 63.3475 28.5726 62.3411L35.0507 52.1568C39.4491 53.3998 44.1639 52.7006 48.0141 50.2288L54.3904 58.965C51.6853 61.8358 51.5307 66.2816 54.0355 69.3327C56.5404 72.3838 60.9142 73.0758 64.2307 70.9465C67.5471 68.8172 68.7626 64.5375 67.0657 60.9711C65.3654 57.4046 61.2866 55.6708 57.5595 56.9314L50.997 47.948C53.8426 45.1478 55.6062 41.4189 55.968 37.432L65.155 35.8925C66.4478 37.2803 68.3519 37.9229 70.2138 37.5945C72.0793 37.2696 73.6532 36.0231 74.405 34.2787C75.1568 32.5343 74.9847 30.5251 73.9448 28.936C72.9049 27.3469 71.1378 26.39 69.2477 26.3935L69.2482 26.394ZM56.1337 3.79449H56.1302C57.6479 3.79449 59.0145 4.71257 59.5942 6.11799C60.1739 7.52694 59.8542 9.14778 58.7827 10.2248C57.7112 11.3018 56.0986 11.6231 54.6969 11.0405C53.2986 10.4578 52.3853 9.08417 52.3853 7.56223C52.3853 5.48235 54.061 3.79796 56.1303 3.79443L56.1337 3.79449ZM18.6593 9.44437C18.6557 8.81582 18.9684 8.22608 19.4884 7.87651C20.0083 7.52694 20.6688 7.45982 21.2449 7.69995C21.8246 7.94007 22.2462 8.45562 22.3691 9.07002C22.4921 9.68798 22.2988 10.3271 21.8597 10.772H21.8562L21.8492 10.7791C21.3116 11.3158 20.5071 11.4747 19.8116 11.1817C19.1125 10.8921 18.6557 10.2035 18.6593 9.44429L18.6593 9.44437ZM24.2803 67.8253C23.5214 67.8253 22.8363 67.3663 22.5483 66.6635C22.2567 65.9608 22.4183 65.1486 22.9558 64.6119C23.4898 64.0717 24.2943 63.9127 24.9969 64.2023C25.696 64.4954 26.1527 65.1804 26.1527 65.9432C26.1527 66.9813 25.3131 67.8253 24.2803 67.8253L24.2803 67.8253ZM63.6272 64.0575V64.061C63.6272 65.583 62.7138 66.9566 61.3121 67.5393C59.9138 68.1219 58.3013 67.8006 57.2298 66.7236C56.1583 65.6466 55.8351 64.0258 56.4183 62.6168C56.9979 61.2114 58.3646 60.2933 59.8787 60.2933C61.948 60.2968 63.6237 61.9812 63.6273 64.0611L63.6272 64.0575ZM7.41728 41.458V41.4615C5.89961 41.4615 4.53304 40.5434 3.95331 39.1345C3.37364 37.7291 3.69334 36.1082 4.76484 35.0312C5.83633 33.9542 7.44888 33.6293 8.85062 34.2155C10.2489 34.7982 11.1622 36.1718 11.1622 37.6938C11.1622 39.7736 9.48647 41.458 7.41722 41.4616L7.41728 41.458ZM39.2708 48.9899L39.2673 48.9935C35.7893 48.9935 32.4553 47.6057 29.9931 45.1339C27.5339 42.6586 26.1533 39.3075 26.1533 35.8121C26.1533 32.3162 27.5339 28.9616 29.9931 26.4902C32.4558 24.0184 35.7897 22.6271 39.2673 22.6271C42.7453 22.6271 46.0827 24.0185 48.5414 26.4902C51.0002 28.962 52.3848 32.3166 52.3848 35.8121C52.3777 39.3044 50.997 42.6555 48.5379 45.1276C46.0788 47.5997 42.7448 48.9907 39.2664 48.9942L39.2708 48.9899ZM69.2482 33.9224V33.9259C68.4894 33.9259 67.8043 33.4669 67.5162 32.7641C67.2246 32.0614 67.3862 31.2492 67.9237 30.7125C68.4577 30.1723 69.2622 30.0134 69.9648 30.3029C70.6639 30.596 71.1207 31.281 71.1207 32.0438C71.1207 33.0819 70.281 33.9259 69.2482 33.9259L69.2482 33.9224Z" fill="white"/>
</svg>
