<svg width="144" height="164" viewBox="0 0 144 164" fill="none" xmlns="http://www.w3.org/2000/svg">
<path d="M139.803 120.997H105.852V121.736V155.631H126.002C128.317 155.631 130.2 157.507 130.2 159.815C130.2 162.123 128.317 164 126.002 164H35.6083C33.2929 164 31.4103 162.123 31.4103 159.815C31.4103 157.507 33.2929 155.631 35.6083 155.631H55.7584V142.927H49.0417C33.4436 142.94 18.7645 135.552 9.52226 123.017C0.280228 110.49 -2.42224 94.3195 2.24152 79.4845C6.90509 64.6424 18.3839 52.8993 33.1417 47.8712C34.5651 45.2623 36.4673 42.9478 38.7498 41.0386L34.788 37.0895C30.1768 32.4538 30.1768 24.9869 34.788 20.3513L51.6453 3.44245C56.2957 -1.14748 63.7931 -1.14748 68.437 3.44245L112.096 46.9616C116.576 51.4339 116.759 58.6128 112.515 63.3009L120.728 71.4868C123.581 74.3375 123.581 78.947 120.728 81.7978L113.289 89.2123C110.43 92.0565 105.805 92.0565 102.945 89.2123L94.7331 81.0264C90.0301 85.2566 82.8281 85.0737 78.348 80.6079L71.7166 73.9977H71.7101C63.7667 83.4849 49.7817 85.1587 39.8057 77.816C32.4331 81.9548 28.7861 90.5331 30.9244 98.7002C33.0692 106.867 40.4616 112.561 48.9302 112.581H57.5425C60.0022 106.317 64.8955 101.309 71.1136 98.6937C77.3318 96.0783 84.3503 96.0783 90.5686 98.6937C96.7869 101.309 101.68 106.317 104.14 112.581H139.802C142.124 112.581 144 114.451 144 116.766C144 119.074 142.124 120.95 139.802 120.95L139.803 120.997ZM108.253 82.4997L114.15 76.6935L106.724 69.2921L100.815 75.1831L108.253 82.4997ZM84.4236 74.6471V74.6537C85.0927 75.3206 85.9979 75.6998 86.9424 75.6998C87.8935 75.6998 88.7987 75.3206 89.4612 74.6537L106.292 57.9155C106.961 57.2486 107.341 56.3463 107.341 55.4048C107.341 54.4567 106.961 53.5544 106.292 52.8941L62.633 9.37494C61.9639 8.7015 61.0587 8.32226 60.1142 8.32226C59.1631 8.32226 58.2579 8.70148 57.5954 9.37494L40.6995 26.1984C40.0305 26.8588 39.6501 27.7611 39.6501 28.7092C39.6501 29.6507 40.0305 30.553 40.6995 31.2199L46.3406 36.7905C54.8021 33.9659 64.1365 36.1563 70.4401 42.4461C76.7436 48.736 78.9344 58.0401 76.1008 66.4687L84.4236 74.6471ZM68.9569 58.916H68.9635C68.9635 52.8223 65.2772 47.33 59.6296 45.0024C53.982 42.6683 47.4818 43.9563 43.1592 48.265C38.8432 52.5737 37.5444 59.0532 39.8862 64.6828C42.2278 70.3123 47.7377 73.9803 53.8509 73.9803C62.1549 73.9737 68.8978 67.285 68.9438 59.001L68.9569 58.916ZM49.0435 120.847C41.2642 120.847 33.8587 117.493 28.7289 111.661C23.5995 105.822 21.2382 98.0609 22.2613 90.3714C23.278 82.6757 27.5744 75.7975 34.0483 71.4891C31.6083 67.7231 30.3095 63.3358 30.3095 58.8505V57.9482C19.3424 63.5058 11.4977 73.7122 8.96545 85.7101C6.42703 97.708 9.48361 110.203 17.2695 119.69C25.0553 129.184 36.7311 134.65 49.0294 134.558H55.7461V121.737V120.998L49.0435 120.847ZM80.8371 105.129C71.6409 105.142 64.183 112.57 64.1765 121.736V155.631H97.4913V121.736C97.4848 112.57 90.0334 105.142 80.8372 105.129H80.8371Z" fill="#0069CC"/>
</svg>
