<svg width="63" height="54" viewBox="0 0 63 54" fill="none" xmlns="http://www.w3.org/2000/svg">
<g opacity="0.5">
<path d="M49.1889 52.7479C45.7454 52.7479 42.4422 51.3797 40.0053 48.9455C37.5684 46.5086 36.2001 43.2054 36.2001 39.7618C36.2001 38.6149 37.1285 37.6892 38.2727 37.6892C39.4197 37.6892 40.3453 38.6149 40.3453 39.7618C40.3453 43.3376 42.5016 46.5625 45.8047 47.9306C49.1106 49.2988 52.913 48.5432 55.4416 46.0145C57.9703 43.4832 58.7286 39.6807 57.3603 36.3777C55.9894 33.0718 52.7672 30.9183 49.1888 30.9183L2.07259 30.9183C0.928382 30.9183 0 29.9899 0 28.8457C0 27.7015 0.928382 26.7731 2.07259 26.7731L49.1888 26.7731C53.8305 26.7731 58.1161 29.2478 60.4367 33.2661C62.7576 37.2845 62.7576 42.2363 60.4367 46.255C58.1158 50.2738 53.8303 52.748 49.1888 52.748L49.1889 52.7479Z" fill="white"/>
<path d="M22.1076 40.3147L2.07259 40.3147C0.928382 40.3147 0 39.3891 0 38.2421C0 37.0979 0.928382 36.1695 2.07259 36.1695H22.1076C25.5727 36.1695 28.6951 38.2583 30.0228 41.4589C31.3479 44.6596 30.6166 48.346 28.1662 50.7939C25.7157 53.2443 22.0294 53.9783 18.8284 52.6533C15.6278 51.3255 13.5418 48.2031 13.5418 44.738C13.5418 43.5938 14.4674 42.6654 15.6143 42.6654C16.7585 42.6654 17.6869 43.5938 17.6869 44.738C17.6869 46.5245 18.7637 48.1384 20.4153 48.8212C22.0669 49.5066 23.9694 49.1288 25.2352 47.8632C26.4981 46.6002 26.876 44.6976 26.1932 43.046C25.5077 41.3944 23.8966 40.3149 22.1073 40.3149L22.1076 40.3147Z" fill="white"/>
<path d="M28.9462 16.9938C31.545 16.9938 33.8875 15.4286 34.8833 13.0268C35.8765 10.6276 35.3286 7.86415 33.4908 6.02624C31.653 4.18841 28.8896 3.63793 26.4876 4.63374C24.0884 5.62685 22.5232 7.9693 22.5232 10.5681C22.5232 11.7151 21.5948 12.6407 20.4506 12.6407C19.3036 12.6407 18.378 11.7151 18.378 10.5681C18.378 7.76688 19.4899 5.07631 21.4734 3.09574C23.4543 1.1122 26.1448 0.000328315 28.9458 0.000328315C31.7497 0.000328315 34.4376 1.1122 36.4209 3.09574C38.4045 5.07658 39.5163 7.76715 39.5163 10.5681C39.5163 13.3721 38.4045 16.0599 36.4209 18.0433C34.4374 20.0266 31.7495 21.1387 28.9458 21.1387H2.07259C0.928382 21.1387 0 20.2103 0 19.0661C0 17.9219 0.928382 16.9935 2.07259 16.9935L28.9462 16.9938Z" fill="white"/>
</g>
</svg>
